%TF.GenerationSoftware,KiCad,Pcbnew,8.0.8*%
%TF.CreationDate,2025-07-03T12:07:37-04:00*%
%TF.ProjectId,pathfinder,70617468-6669-46e6-9465-722e6b696361,rev?*%
%TF.SameCoordinates,Original*%
%TF.FileFunction,Legend,Bot*%
%TF.FilePolarity,Positive*%
%FSLAX46Y46*%
G04 Gerber Fmt 4.6, Leading zero omitted, Abs format (unit mm)*
G04 Created by KiCad (PCBNEW 8.0.8) date 2025-07-03 12:07:37*
%MOMM*%
%LPD*%
G01*
G04 APERTURE LIST*
G04 Aperture macros list*
%AMRoundRect*
0 Rectangle with rounded corners*
0 $1 Rounding radius*
0 $2 $3 $4 $5 $6 $7 $8 $9 X,Y pos of 4 corners*
0 Add a 4 corners polygon primitive as box body*
4,1,4,$2,$3,$4,$5,$6,$7,$8,$9,$2,$3,0*
0 Add four circle primitives for the rounded corners*
1,1,$1+$1,$2,$3*
1,1,$1+$1,$4,$5*
1,1,$1+$1,$6,$7*
1,1,$1+$1,$8,$9*
0 Add four rect primitives between the rounded corners*
20,1,$1+$1,$2,$3,$4,$5,0*
20,1,$1+$1,$4,$5,$6,$7,0*
20,1,$1+$1,$6,$7,$8,$9,0*
20,1,$1+$1,$8,$9,$2,$3,0*%
G04 Aperture macros list end*
%ADD10C,2.019000*%
%ADD11RoundRect,0.102000X0.907500X-0.907500X0.907500X0.907500X-0.907500X0.907500X-0.907500X-0.907500X0*%
%ADD12C,1.700000*%
%ADD13C,4.000000*%
%ADD14C,2.200000*%
%ADD15C,1.400000*%
%ADD16O,1.400000X1.400000*%
%ADD17C,1.524000*%
G04 APERTURE END LIST*
%LPC*%
D10*
%TO.C,D4*%
X98880000Y-74310000D03*
D11*
X98880000Y-76850000D03*
%TD*%
D12*
%TO.C,SW2*%
X96876666Y-104370000D03*
D13*
X101956666Y-104370000D03*
D12*
X107036666Y-104370000D03*
D14*
X104496666Y-99290000D03*
X98146666Y-101830000D03*
%TD*%
D12*
%TO.C,SW3*%
X117183332Y-104370000D03*
D13*
X122263332Y-104370000D03*
D12*
X127343332Y-104370000D03*
D14*
X124803332Y-99290000D03*
X118453332Y-101830000D03*
%TD*%
D12*
%TO.C,SW4*%
X137490000Y-104370000D03*
D13*
X142570000Y-104370000D03*
D12*
X147650000Y-104370000D03*
D14*
X145110000Y-99290000D03*
X138760000Y-101830000D03*
%TD*%
D15*
%TO.C,R1*%
X98880000Y-65990000D03*
D16*
X98880000Y-71070000D03*
%TD*%
D15*
%TO.C,R2*%
X76540000Y-71070000D03*
D16*
X76540000Y-65990000D03*
%TD*%
D10*
%TO.C,D1*%
X76484682Y-74310000D03*
D11*
X76484682Y-76850000D03*
%TD*%
D15*
%TO.C,R4*%
X91433332Y-71070000D03*
D16*
X91433332Y-65990000D03*
%TD*%
D12*
%TO.C,SW1*%
X76570000Y-104370000D03*
D13*
X81650000Y-104370000D03*
D12*
X86730000Y-104370000D03*
D14*
X84190000Y-99290000D03*
X77840000Y-101830000D03*
%TD*%
D10*
%TO.C,D2*%
X83949788Y-74310000D03*
D11*
X83949788Y-76850000D03*
%TD*%
D17*
%TO.C,U1*%
X105400000Y-67010000D03*
X105400000Y-69550000D03*
X105400000Y-72090000D03*
X105400000Y-74630000D03*
X105400000Y-77170000D03*
X105400000Y-79710000D03*
X105400000Y-82250000D03*
X120640000Y-82250000D03*
X120640000Y-79710000D03*
X120640000Y-77170000D03*
X120640000Y-74630000D03*
X120640000Y-72090000D03*
X120640000Y-69550000D03*
X120640000Y-67010000D03*
%TD*%
D15*
%TO.C,R3*%
X83986666Y-71070000D03*
D16*
X83986666Y-65990000D03*
%TD*%
D10*
%TO.C,D3*%
X91414894Y-74310000D03*
D11*
X91414894Y-76850000D03*
%TD*%
%LPD*%
M02*
