%TF.GenerationSoftware,KiCad,Pcbnew,8.0.8*%
%TF.CreationDate,2025-07-03T12:07:37-04:00*%
%TF.ProjectId,pathfinder,70617468-6669-46e6-9465-722e6b696361,rev?*%
%TF.SameCoordinates,Original*%
%TF.FileFunction,Copper,L2,Bot*%
%TF.FilePolarity,Positive*%
%FSLAX46Y46*%
G04 Gerber Fmt 4.6, Leading zero omitted, Abs format (unit mm)*
G04 Created by KiCad (PCBNEW 8.0.8) date 2025-07-03 12:07:37*
%MOMM*%
%LPD*%
G01*
G04 APERTURE LIST*
%TA.AperFunction,ComponentPad*%
%ADD10C,1.815000*%
%TD*%
%TA.AperFunction,ComponentPad*%
%ADD11R,1.815000X1.815000*%
%TD*%
%TA.AperFunction,ComponentPad*%
%ADD12C,2.200000*%
%TD*%
%TA.AperFunction,ComponentPad*%
%ADD13C,1.400000*%
%TD*%
%TA.AperFunction,ComponentPad*%
%ADD14O,1.400000X1.400000*%
%TD*%
%TA.AperFunction,ComponentPad*%
%ADD15C,1.524000*%
%TD*%
%TA.AperFunction,ViaPad*%
%ADD16C,0.600000*%
%TD*%
%TA.AperFunction,Conductor*%
%ADD17C,0.200000*%
%TD*%
G04 APERTURE END LIST*
D10*
%TO.P,D4,A*%
%TO.N,Net-(D4-PadA)*%
X98880000Y-74310000D03*
D11*
%TO.P,D4,C*%
%TO.N,GND*%
X98880000Y-76850000D03*
%TD*%
D12*
%TO.P,SW2,1,1*%
%TO.N,Net-(U1-GPIO27{slash}ADC1{slash}A1)*%
X104496666Y-99290000D03*
%TO.P,SW2,2,2*%
%TO.N,GND*%
X98146666Y-101830000D03*
%TD*%
%TO.P,SW3,1,1*%
%TO.N,Net-(U1-GPIO28{slash}ADC2{slash}A2)*%
X124803332Y-99290000D03*
%TO.P,SW3,2,2*%
%TO.N,GND*%
X118453332Y-101830000D03*
%TD*%
%TO.P,SW4,1,1*%
%TO.N,Net-(U1-GPIO29{slash}ADC3{slash}A3)*%
X145110000Y-99290000D03*
%TO.P,SW4,2,2*%
%TO.N,GND*%
X138760000Y-101830000D03*
%TD*%
D13*
%TO.P,R1,1*%
%TO.N,Net-(U1-GPIO4{slash}MISO)*%
X98880000Y-65990000D03*
D14*
%TO.P,R1,2*%
%TO.N,Net-(D4-PadA)*%
X98880000Y-71070000D03*
%TD*%
D13*
%TO.P,R2,1*%
%TO.N,Net-(D1-PadA)*%
X76540000Y-71070000D03*
D14*
%TO.P,R2,2*%
%TO.N,Net-(U1-GPIO6{slash}SDA)*%
X76540000Y-65990000D03*
%TD*%
D10*
%TO.P,D1,A*%
%TO.N,Net-(D1-PadA)*%
X76484682Y-74310000D03*
D11*
%TO.P,D1,C*%
%TO.N,GND*%
X76484682Y-76850000D03*
%TD*%
D13*
%TO.P,R4,1*%
%TO.N,Net-(D3-PadA)*%
X91433332Y-71070000D03*
D14*
%TO.P,R4,2*%
%TO.N,Net-(U1-GPIO0{slash}TX)*%
X91433332Y-65990000D03*
%TD*%
D12*
%TO.P,SW1,1,1*%
%TO.N,Net-(U1-GPIO26{slash}ADC0{slash}A0)*%
X84190000Y-99290000D03*
%TO.P,SW1,2,2*%
%TO.N,GND*%
X77840000Y-101830000D03*
%TD*%
D10*
%TO.P,D2,A*%
%TO.N,Net-(D2-PadA)*%
X83949788Y-74310000D03*
D11*
%TO.P,D2,C*%
%TO.N,GND*%
X83949788Y-76850000D03*
%TD*%
D15*
%TO.P,U1,1,GPIO26/ADC0/A0*%
%TO.N,Net-(U1-GPIO26{slash}ADC0{slash}A0)*%
X105400000Y-67010000D03*
%TO.P,U1,2,GPIO27/ADC1/A1*%
%TO.N,Net-(U1-GPIO27{slash}ADC1{slash}A1)*%
X105400000Y-69550000D03*
%TO.P,U1,3,GPIO28/ADC2/A2*%
%TO.N,Net-(U1-GPIO28{slash}ADC2{slash}A2)*%
X105400000Y-72090000D03*
%TO.P,U1,4,GPIO29/ADC3/A3*%
%TO.N,Net-(U1-GPIO29{slash}ADC3{slash}A3)*%
X105400000Y-74630000D03*
%TO.P,U1,5,GPIO6/SDA*%
%TO.N,Net-(U1-GPIO6{slash}SDA)*%
X105400000Y-77170000D03*
%TO.P,U1,6,GPIO7/SCL*%
%TO.N,Net-(U1-GPIO7{slash}SCL)*%
X105400000Y-79710000D03*
%TO.P,U1,7,GPIO0/TX*%
%TO.N,Net-(U1-GPIO0{slash}TX)*%
X105400000Y-82250000D03*
%TO.P,U1,8,GPIO1/RX*%
%TO.N,unconnected-(U1-GPIO1{slash}RX-Pad8)*%
X120640000Y-82250000D03*
%TO.P,U1,9,GPIO2/SCK*%
%TO.N,unconnected-(U1-GPIO2{slash}SCK-Pad9)*%
X120640000Y-79710000D03*
%TO.P,U1,10,GPIO4/MISO*%
%TO.N,Net-(U1-GPIO4{slash}MISO)*%
X120640000Y-77170000D03*
%TO.P,U1,11,GPIO3/MOSI*%
%TO.N,unconnected-(U1-GPIO3{slash}MOSI-Pad11)*%
X120640000Y-74630000D03*
%TO.P,U1,12,3V3*%
%TO.N,unconnected-(U1-3V3-Pad12)*%
X120640000Y-72090000D03*
%TO.P,U1,13,GND*%
%TO.N,GND*%
X120640000Y-69550000D03*
%TO.P,U1,14,VBUS*%
%TO.N,unconnected-(U1-VBUS-Pad14)*%
X120640000Y-67010000D03*
%TD*%
D13*
%TO.P,R3,1*%
%TO.N,Net-(D2-PadA)*%
X83986666Y-71070000D03*
D14*
%TO.P,R3,2*%
%TO.N,Net-(U1-GPIO7{slash}SCL)*%
X83986666Y-65990000D03*
%TD*%
D10*
%TO.P,D3,A*%
%TO.N,Net-(D3-PadA)*%
X91414894Y-74310000D03*
D11*
%TO.P,D3,C*%
%TO.N,GND*%
X91414894Y-76850000D03*
%TD*%
D16*
%TO.N,GND*%
X126100000Y-69630000D03*
X102280000Y-86510000D03*
X120020000Y-90990000D03*
X117690000Y-89640000D03*
%TO.N,Net-(U1-GPIO6{slash}SDA)*%
X103270000Y-76420000D03*
X81060000Y-68210000D03*
%TO.N,Net-(U1-GPIO7{slash}SCL)*%
X96090000Y-72150000D03*
X102470000Y-80070000D03*
%TO.N,Net-(U1-GPIO26{slash}ADC0{slash}A0)*%
X106970000Y-86310000D03*
X107570000Y-67770000D03*
%TO.N,Net-(U1-GPIO28{slash}ADC2{slash}A2)*%
X108070000Y-73320000D03*
X118670000Y-93550000D03*
%TO.N,Net-(U1-GPIO29{slash}ADC3{slash}A3)*%
X107920000Y-75310000D03*
X110120000Y-77110000D03*
%TD*%
D17*
%TO.N,GND*%
X120020000Y-90990000D02*
X126100000Y-84910000D01*
X102280000Y-86510000D02*
X105410000Y-89640000D01*
X105410000Y-89640000D02*
X117690000Y-89640000D01*
X126100000Y-84910000D02*
X126100000Y-69630000D01*
%TO.N,Net-(U1-GPIO6{slash}SDA)*%
X96338529Y-71550000D02*
X97187058Y-72398529D01*
X82774894Y-68210000D02*
X90207394Y-75642500D01*
X95841471Y-71550000D02*
X96338529Y-71550000D01*
X95490000Y-72398529D02*
X95490000Y-71901471D01*
X97187058Y-72398529D02*
X99248529Y-72398529D01*
X81060000Y-68210000D02*
X82774894Y-68210000D01*
X92246029Y-75642500D02*
X95490000Y-72398529D01*
X99248529Y-72398529D02*
X103270000Y-76420000D01*
X95490000Y-71901471D02*
X95841471Y-71550000D01*
X90207394Y-75642500D02*
X92246029Y-75642500D01*
%TO.N,Net-(U1-GPIO7{slash}SCL)*%
X96180000Y-80210000D02*
X102330000Y-80210000D01*
X96090000Y-72150000D02*
X96180000Y-72240000D01*
X96180000Y-72240000D02*
X96180000Y-80210000D01*
X102330000Y-80210000D02*
X102470000Y-80070000D01*
%TO.N,Net-(U1-GPIO26{slash}ADC0{slash}A0)*%
X106970000Y-68370000D02*
X107570000Y-67770000D01*
X106970000Y-86310000D02*
X106970000Y-68370000D01*
%TO.N,Net-(U1-GPIO28{slash}ADC2{slash}A2)*%
X108070000Y-73320000D02*
X118670000Y-83920000D01*
X118670000Y-83920000D02*
X118670000Y-93550000D01*
%TO.N,Net-(U1-GPIO29{slash}ADC3{slash}A3)*%
X110120000Y-77110000D02*
X109720000Y-77110000D01*
X109720000Y-77110000D02*
X107920000Y-75310000D01*
%TD*%
M02*
