M48
; DRILL file {KiCad 8.0.8} date 2025-07-03T12:07:37-0400
; FORMAT={-:-/ absolute / inch / decimal}
; #@! TF.CreationDate,2025-07-03T12:07:37-04:00
; #@! TF.GenerationSoftware,Kicad,Pcbnew,8.0.8
; #@! TF.FileFunction,Plated,1,2,PTH
FMAT,2
INCH
; #@! TA.AperFunction,Plated,PTH,ViaDrill
T1C0.0118
; #@! TA.AperFunction,Plated,PTH,ComponentDrill
T2C0.0276
; #@! TA.AperFunction,Plated,PTH,ComponentDrill
T3C0.0350
; #@! TA.AperFunction,Plated,PTH,ComponentDrill
T4C0.0476
; #@! TA.AperFunction,Plated,PTH,ComponentDrill
T5C0.0591
%
G90
G05
T1
X3.1913Y-2.6854
X3.7831Y-2.8406
X4.0268Y-3.4059
X4.0343Y-3.1524
X4.0657Y-3.0087
X4.2114Y-3.398
X4.235Y-2.6681
X4.2488Y-2.965
X4.2547Y-2.8866
X4.3354Y-3.0358
X4.6335Y-3.5291
X4.672Y-3.6831
X4.7252Y-3.5823
X4.9646Y-2.7413
T2
X3.0134Y-2.598
X3.0134Y-2.798
X3.3066Y-2.598
X3.3066Y-2.798
X3.5997Y-2.598
X3.5997Y-2.798
X3.8929Y-2.598
X3.8929Y-2.798
T3
X4.1496Y-2.6382
X4.1496Y-2.7382
X4.1496Y-2.8382
X4.1496Y-2.9382
X4.1496Y-3.0382
X4.1496Y-3.1382
X4.1496Y-3.2382
X4.7496Y-2.6382
X4.7496Y-2.7382
X4.7496Y-2.8382
X4.7496Y-2.9382
X4.7496Y-3.0382
X4.7496Y-3.1382
X4.7496Y-3.2382
T4
X3.0112Y-2.9256
X3.0112Y-3.0256
X3.3051Y-2.9256
X3.3051Y-3.0256
X3.599Y-2.9256
X3.599Y-3.0256
X3.8929Y-2.9256
X3.8929Y-3.0256
T5
X3.0646Y-4.0091
X3.3146Y-3.9091
X3.864Y-4.0091
X4.114Y-3.9091
X4.6635Y-4.0091
X4.9135Y-3.9091
X5.463Y-4.0091
X5.713Y-3.9091
M30
