%TF.GenerationSoftware,KiCad,Pcbnew,8.0.8*%
%TF.CreationDate,2025-07-03T12:07:37-04:00*%
%TF.ProjectId,pathfinder,70617468-6669-46e6-9465-722e6b696361,rev?*%
%TF.SameCoordinates,Original*%
%TF.FileFunction,Legend,Top*%
%TF.FilePolarity,Positive*%
%FSLAX46Y46*%
G04 Gerber Fmt 4.6, Leading zero omitted, Abs format (unit mm)*
G04 Created by KiCad (PCBNEW 8.0.8) date 2025-07-03 12:07:37*
%MOMM*%
%LPD*%
G01*
G04 APERTURE LIST*
G04 Aperture macros list*
%AMRoundRect*
0 Rectangle with rounded corners*
0 $1 Rounding radius*
0 $2 $3 $4 $5 $6 $7 $8 $9 X,Y pos of 4 corners*
0 Add a 4 corners polygon primitive as box body*
4,1,4,$2,$3,$4,$5,$6,$7,$8,$9,$2,$3,0*
0 Add four circle primitives for the rounded corners*
1,1,$1+$1,$2,$3*
1,1,$1+$1,$4,$5*
1,1,$1+$1,$6,$7*
1,1,$1+$1,$8,$9*
0 Add four rect primitives between the rounded corners*
20,1,$1+$1,$2,$3,$4,$5,0*
20,1,$1+$1,$4,$5,$6,$7,0*
20,1,$1+$1,$6,$7,$8,$9,0*
20,1,$1+$1,$8,$9,$2,$3,0*%
G04 Aperture macros list end*
%ADD10C,0.150000*%
%ADD11C,0.101600*%
%ADD12C,0.127000*%
%ADD13C,0.200000*%
%ADD14C,0.120000*%
%ADD15C,0.100000*%
%ADD16C,0.504000*%
%ADD17C,2.019000*%
%ADD18RoundRect,0.102000X0.907500X-0.907500X0.907500X0.907500X-0.907500X0.907500X-0.907500X-0.907500X0*%
%ADD19C,1.700000*%
%ADD20C,4.000000*%
%ADD21C,2.200000*%
%ADD22C,1.400000*%
%ADD23O,1.400000X1.400000*%
%ADD24RoundRect,0.152400X1.063600X0.609600X-1.063600X0.609600X-1.063600X-0.609600X1.063600X-0.609600X0*%
%ADD25C,1.524000*%
%ADD26RoundRect,0.152400X-1.063600X-0.609600X1.063600X-0.609600X1.063600X0.609600X-1.063600X0.609600X0*%
G04 APERTURE END LIST*
D10*
X95534295Y-76130475D02*
X94734295Y-76130475D01*
X94734295Y-76130475D02*
X94734295Y-75939999D01*
X94734295Y-75939999D02*
X94772390Y-75825713D01*
X94772390Y-75825713D02*
X94848580Y-75749523D01*
X94848580Y-75749523D02*
X94924771Y-75711428D01*
X94924771Y-75711428D02*
X95077152Y-75673332D01*
X95077152Y-75673332D02*
X95191438Y-75673332D01*
X95191438Y-75673332D02*
X95343819Y-75711428D01*
X95343819Y-75711428D02*
X95420009Y-75749523D01*
X95420009Y-75749523D02*
X95496200Y-75825713D01*
X95496200Y-75825713D02*
X95534295Y-75939999D01*
X95534295Y-75939999D02*
X95534295Y-76130475D01*
X95000961Y-74987618D02*
X95534295Y-74987618D01*
X94696200Y-75178094D02*
X95267628Y-75368571D01*
X95267628Y-75368571D02*
X95267628Y-74873332D01*
X100623333Y-96903200D02*
X100766190Y-96950819D01*
X100766190Y-96950819D02*
X101004285Y-96950819D01*
X101004285Y-96950819D02*
X101099523Y-96903200D01*
X101099523Y-96903200D02*
X101147142Y-96855580D01*
X101147142Y-96855580D02*
X101194761Y-96760342D01*
X101194761Y-96760342D02*
X101194761Y-96665104D01*
X101194761Y-96665104D02*
X101147142Y-96569866D01*
X101147142Y-96569866D02*
X101099523Y-96522247D01*
X101099523Y-96522247D02*
X101004285Y-96474628D01*
X101004285Y-96474628D02*
X100813809Y-96427009D01*
X100813809Y-96427009D02*
X100718571Y-96379390D01*
X100718571Y-96379390D02*
X100670952Y-96331771D01*
X100670952Y-96331771D02*
X100623333Y-96236533D01*
X100623333Y-96236533D02*
X100623333Y-96141295D01*
X100623333Y-96141295D02*
X100670952Y-96046057D01*
X100670952Y-96046057D02*
X100718571Y-95998438D01*
X100718571Y-95998438D02*
X100813809Y-95950819D01*
X100813809Y-95950819D02*
X101051904Y-95950819D01*
X101051904Y-95950819D02*
X101194761Y-95998438D01*
X101528095Y-95950819D02*
X101766190Y-96950819D01*
X101766190Y-96950819D02*
X101956666Y-96236533D01*
X101956666Y-96236533D02*
X102147142Y-96950819D01*
X102147142Y-96950819D02*
X102385238Y-95950819D01*
X102718571Y-96046057D02*
X102766190Y-95998438D01*
X102766190Y-95998438D02*
X102861428Y-95950819D01*
X102861428Y-95950819D02*
X103099523Y-95950819D01*
X103099523Y-95950819D02*
X103194761Y-95998438D01*
X103194761Y-95998438D02*
X103242380Y-96046057D01*
X103242380Y-96046057D02*
X103289999Y-96141295D01*
X103289999Y-96141295D02*
X103289999Y-96236533D01*
X103289999Y-96236533D02*
X103242380Y-96379390D01*
X103242380Y-96379390D02*
X102670952Y-96950819D01*
X102670952Y-96950819D02*
X103289999Y-96950819D01*
X120929999Y-96903200D02*
X121072856Y-96950819D01*
X121072856Y-96950819D02*
X121310951Y-96950819D01*
X121310951Y-96950819D02*
X121406189Y-96903200D01*
X121406189Y-96903200D02*
X121453808Y-96855580D01*
X121453808Y-96855580D02*
X121501427Y-96760342D01*
X121501427Y-96760342D02*
X121501427Y-96665104D01*
X121501427Y-96665104D02*
X121453808Y-96569866D01*
X121453808Y-96569866D02*
X121406189Y-96522247D01*
X121406189Y-96522247D02*
X121310951Y-96474628D01*
X121310951Y-96474628D02*
X121120475Y-96427009D01*
X121120475Y-96427009D02*
X121025237Y-96379390D01*
X121025237Y-96379390D02*
X120977618Y-96331771D01*
X120977618Y-96331771D02*
X120929999Y-96236533D01*
X120929999Y-96236533D02*
X120929999Y-96141295D01*
X120929999Y-96141295D02*
X120977618Y-96046057D01*
X120977618Y-96046057D02*
X121025237Y-95998438D01*
X121025237Y-95998438D02*
X121120475Y-95950819D01*
X121120475Y-95950819D02*
X121358570Y-95950819D01*
X121358570Y-95950819D02*
X121501427Y-95998438D01*
X121834761Y-95950819D02*
X122072856Y-96950819D01*
X122072856Y-96950819D02*
X122263332Y-96236533D01*
X122263332Y-96236533D02*
X122453808Y-96950819D01*
X122453808Y-96950819D02*
X122691904Y-95950819D01*
X122977618Y-95950819D02*
X123596665Y-95950819D01*
X123596665Y-95950819D02*
X123263332Y-96331771D01*
X123263332Y-96331771D02*
X123406189Y-96331771D01*
X123406189Y-96331771D02*
X123501427Y-96379390D01*
X123501427Y-96379390D02*
X123549046Y-96427009D01*
X123549046Y-96427009D02*
X123596665Y-96522247D01*
X123596665Y-96522247D02*
X123596665Y-96760342D01*
X123596665Y-96760342D02*
X123549046Y-96855580D01*
X123549046Y-96855580D02*
X123501427Y-96903200D01*
X123501427Y-96903200D02*
X123406189Y-96950819D01*
X123406189Y-96950819D02*
X123120475Y-96950819D01*
X123120475Y-96950819D02*
X123025237Y-96903200D01*
X123025237Y-96903200D02*
X122977618Y-96855580D01*
X141236667Y-96903200D02*
X141379524Y-96950819D01*
X141379524Y-96950819D02*
X141617619Y-96950819D01*
X141617619Y-96950819D02*
X141712857Y-96903200D01*
X141712857Y-96903200D02*
X141760476Y-96855580D01*
X141760476Y-96855580D02*
X141808095Y-96760342D01*
X141808095Y-96760342D02*
X141808095Y-96665104D01*
X141808095Y-96665104D02*
X141760476Y-96569866D01*
X141760476Y-96569866D02*
X141712857Y-96522247D01*
X141712857Y-96522247D02*
X141617619Y-96474628D01*
X141617619Y-96474628D02*
X141427143Y-96427009D01*
X141427143Y-96427009D02*
X141331905Y-96379390D01*
X141331905Y-96379390D02*
X141284286Y-96331771D01*
X141284286Y-96331771D02*
X141236667Y-96236533D01*
X141236667Y-96236533D02*
X141236667Y-96141295D01*
X141236667Y-96141295D02*
X141284286Y-96046057D01*
X141284286Y-96046057D02*
X141331905Y-95998438D01*
X141331905Y-95998438D02*
X141427143Y-95950819D01*
X141427143Y-95950819D02*
X141665238Y-95950819D01*
X141665238Y-95950819D02*
X141808095Y-95998438D01*
X142141429Y-95950819D02*
X142379524Y-96950819D01*
X142379524Y-96950819D02*
X142570000Y-96236533D01*
X142570000Y-96236533D02*
X142760476Y-96950819D01*
X142760476Y-96950819D02*
X142998572Y-95950819D01*
X143808095Y-96284152D02*
X143808095Y-96950819D01*
X143570000Y-95903200D02*
X143331905Y-96617485D01*
X143331905Y-96617485D02*
X143950952Y-96617485D01*
X101254819Y-68696666D02*
X100778628Y-69029999D01*
X101254819Y-69268094D02*
X100254819Y-69268094D01*
X100254819Y-69268094D02*
X100254819Y-68887142D01*
X100254819Y-68887142D02*
X100302438Y-68791904D01*
X100302438Y-68791904D02*
X100350057Y-68744285D01*
X100350057Y-68744285D02*
X100445295Y-68696666D01*
X100445295Y-68696666D02*
X100588152Y-68696666D01*
X100588152Y-68696666D02*
X100683390Y-68744285D01*
X100683390Y-68744285D02*
X100731009Y-68791904D01*
X100731009Y-68791904D02*
X100778628Y-68887142D01*
X100778628Y-68887142D02*
X100778628Y-69268094D01*
X101254819Y-67744285D02*
X101254819Y-68315713D01*
X101254819Y-68029999D02*
X100254819Y-68029999D01*
X100254819Y-68029999D02*
X100397676Y-68125237D01*
X100397676Y-68125237D02*
X100492914Y-68220475D01*
X100492914Y-68220475D02*
X100540533Y-68315713D01*
X75074819Y-68696666D02*
X74598628Y-69029999D01*
X75074819Y-69268094D02*
X74074819Y-69268094D01*
X74074819Y-69268094D02*
X74074819Y-68887142D01*
X74074819Y-68887142D02*
X74122438Y-68791904D01*
X74122438Y-68791904D02*
X74170057Y-68744285D01*
X74170057Y-68744285D02*
X74265295Y-68696666D01*
X74265295Y-68696666D02*
X74408152Y-68696666D01*
X74408152Y-68696666D02*
X74503390Y-68744285D01*
X74503390Y-68744285D02*
X74551009Y-68791904D01*
X74551009Y-68791904D02*
X74598628Y-68887142D01*
X74598628Y-68887142D02*
X74598628Y-69268094D01*
X74170057Y-68315713D02*
X74122438Y-68268094D01*
X74122438Y-68268094D02*
X74074819Y-68172856D01*
X74074819Y-68172856D02*
X74074819Y-67934761D01*
X74074819Y-67934761D02*
X74122438Y-67839523D01*
X74122438Y-67839523D02*
X74170057Y-67791904D01*
X74170057Y-67791904D02*
X74265295Y-67744285D01*
X74265295Y-67744285D02*
X74360533Y-67744285D01*
X74360533Y-67744285D02*
X74503390Y-67791904D01*
X74503390Y-67791904D02*
X75074819Y-68363332D01*
X75074819Y-68363332D02*
X75074819Y-67744285D01*
X73138977Y-76130475D02*
X72338977Y-76130475D01*
X72338977Y-76130475D02*
X72338977Y-75939999D01*
X72338977Y-75939999D02*
X72377072Y-75825713D01*
X72377072Y-75825713D02*
X72453262Y-75749523D01*
X72453262Y-75749523D02*
X72529453Y-75711428D01*
X72529453Y-75711428D02*
X72681834Y-75673332D01*
X72681834Y-75673332D02*
X72796120Y-75673332D01*
X72796120Y-75673332D02*
X72948501Y-75711428D01*
X72948501Y-75711428D02*
X73024691Y-75749523D01*
X73024691Y-75749523D02*
X73100882Y-75825713D01*
X73100882Y-75825713D02*
X73138977Y-75939999D01*
X73138977Y-75939999D02*
X73138977Y-76130475D01*
X73138977Y-74911428D02*
X73138977Y-75368571D01*
X73138977Y-75139999D02*
X72338977Y-75139999D01*
X72338977Y-75139999D02*
X72453262Y-75216190D01*
X72453262Y-75216190D02*
X72529453Y-75292380D01*
X72529453Y-75292380D02*
X72567548Y-75368571D01*
X89968151Y-68696666D02*
X89491960Y-69029999D01*
X89968151Y-69268094D02*
X88968151Y-69268094D01*
X88968151Y-69268094D02*
X88968151Y-68887142D01*
X88968151Y-68887142D02*
X89015770Y-68791904D01*
X89015770Y-68791904D02*
X89063389Y-68744285D01*
X89063389Y-68744285D02*
X89158627Y-68696666D01*
X89158627Y-68696666D02*
X89301484Y-68696666D01*
X89301484Y-68696666D02*
X89396722Y-68744285D01*
X89396722Y-68744285D02*
X89444341Y-68791904D01*
X89444341Y-68791904D02*
X89491960Y-68887142D01*
X89491960Y-68887142D02*
X89491960Y-69268094D01*
X89301484Y-67839523D02*
X89968151Y-67839523D01*
X88920532Y-68077618D02*
X89634817Y-68315713D01*
X89634817Y-68315713D02*
X89634817Y-67696666D01*
X80316667Y-96903200D02*
X80459524Y-96950819D01*
X80459524Y-96950819D02*
X80697619Y-96950819D01*
X80697619Y-96950819D02*
X80792857Y-96903200D01*
X80792857Y-96903200D02*
X80840476Y-96855580D01*
X80840476Y-96855580D02*
X80888095Y-96760342D01*
X80888095Y-96760342D02*
X80888095Y-96665104D01*
X80888095Y-96665104D02*
X80840476Y-96569866D01*
X80840476Y-96569866D02*
X80792857Y-96522247D01*
X80792857Y-96522247D02*
X80697619Y-96474628D01*
X80697619Y-96474628D02*
X80507143Y-96427009D01*
X80507143Y-96427009D02*
X80411905Y-96379390D01*
X80411905Y-96379390D02*
X80364286Y-96331771D01*
X80364286Y-96331771D02*
X80316667Y-96236533D01*
X80316667Y-96236533D02*
X80316667Y-96141295D01*
X80316667Y-96141295D02*
X80364286Y-96046057D01*
X80364286Y-96046057D02*
X80411905Y-95998438D01*
X80411905Y-95998438D02*
X80507143Y-95950819D01*
X80507143Y-95950819D02*
X80745238Y-95950819D01*
X80745238Y-95950819D02*
X80888095Y-95998438D01*
X81221429Y-95950819D02*
X81459524Y-96950819D01*
X81459524Y-96950819D02*
X81650000Y-96236533D01*
X81650000Y-96236533D02*
X81840476Y-96950819D01*
X81840476Y-96950819D02*
X82078572Y-95950819D01*
X82983333Y-96950819D02*
X82411905Y-96950819D01*
X82697619Y-96950819D02*
X82697619Y-95950819D01*
X82697619Y-95950819D02*
X82602381Y-96093676D01*
X82602381Y-96093676D02*
X82507143Y-96188914D01*
X82507143Y-96188914D02*
X82411905Y-96236533D01*
X80604083Y-76130475D02*
X79804083Y-76130475D01*
X79804083Y-76130475D02*
X79804083Y-75939999D01*
X79804083Y-75939999D02*
X79842178Y-75825713D01*
X79842178Y-75825713D02*
X79918368Y-75749523D01*
X79918368Y-75749523D02*
X79994559Y-75711428D01*
X79994559Y-75711428D02*
X80146940Y-75673332D01*
X80146940Y-75673332D02*
X80261226Y-75673332D01*
X80261226Y-75673332D02*
X80413607Y-75711428D01*
X80413607Y-75711428D02*
X80489797Y-75749523D01*
X80489797Y-75749523D02*
X80565988Y-75825713D01*
X80565988Y-75825713D02*
X80604083Y-75939999D01*
X80604083Y-75939999D02*
X80604083Y-76130475D01*
X79880273Y-75368571D02*
X79842178Y-75330475D01*
X79842178Y-75330475D02*
X79804083Y-75254285D01*
X79804083Y-75254285D02*
X79804083Y-75063809D01*
X79804083Y-75063809D02*
X79842178Y-74987618D01*
X79842178Y-74987618D02*
X79880273Y-74949523D01*
X79880273Y-74949523D02*
X79956464Y-74911428D01*
X79956464Y-74911428D02*
X80032654Y-74911428D01*
X80032654Y-74911428D02*
X80146940Y-74949523D01*
X80146940Y-74949523D02*
X80604083Y-75406666D01*
X80604083Y-75406666D02*
X80604083Y-74911428D01*
D11*
X104036190Y-62283479D02*
X104036190Y-62797526D01*
X104036190Y-62797526D02*
X104066428Y-62858002D01*
X104066428Y-62858002D02*
X104096666Y-62888241D01*
X104096666Y-62888241D02*
X104157142Y-62918479D01*
X104157142Y-62918479D02*
X104278095Y-62918479D01*
X104278095Y-62918479D02*
X104338571Y-62888241D01*
X104338571Y-62888241D02*
X104368809Y-62858002D01*
X104368809Y-62858002D02*
X104399047Y-62797526D01*
X104399047Y-62797526D02*
X104399047Y-62283479D01*
X105034047Y-62918479D02*
X104671190Y-62918479D01*
X104852618Y-62918479D02*
X104852618Y-62283479D01*
X104852618Y-62283479D02*
X104792142Y-62374193D01*
X104792142Y-62374193D02*
X104731666Y-62434669D01*
X104731666Y-62434669D02*
X104671190Y-62464907D01*
D10*
X82521485Y-68696666D02*
X82045294Y-69029999D01*
X82521485Y-69268094D02*
X81521485Y-69268094D01*
X81521485Y-69268094D02*
X81521485Y-68887142D01*
X81521485Y-68887142D02*
X81569104Y-68791904D01*
X81569104Y-68791904D02*
X81616723Y-68744285D01*
X81616723Y-68744285D02*
X81711961Y-68696666D01*
X81711961Y-68696666D02*
X81854818Y-68696666D01*
X81854818Y-68696666D02*
X81950056Y-68744285D01*
X81950056Y-68744285D02*
X81997675Y-68791904D01*
X81997675Y-68791904D02*
X82045294Y-68887142D01*
X82045294Y-68887142D02*
X82045294Y-69268094D01*
X81521485Y-68363332D02*
X81521485Y-67744285D01*
X81521485Y-67744285D02*
X81902437Y-68077618D01*
X81902437Y-68077618D02*
X81902437Y-67934761D01*
X81902437Y-67934761D02*
X81950056Y-67839523D01*
X81950056Y-67839523D02*
X81997675Y-67791904D01*
X81997675Y-67791904D02*
X82092913Y-67744285D01*
X82092913Y-67744285D02*
X82331008Y-67744285D01*
X82331008Y-67744285D02*
X82426246Y-67791904D01*
X82426246Y-67791904D02*
X82473866Y-67839523D01*
X82473866Y-67839523D02*
X82521485Y-67934761D01*
X82521485Y-67934761D02*
X82521485Y-68220475D01*
X82521485Y-68220475D02*
X82473866Y-68315713D01*
X82473866Y-68315713D02*
X82426246Y-68363332D01*
X88069189Y-76130475D02*
X87269189Y-76130475D01*
X87269189Y-76130475D02*
X87269189Y-75939999D01*
X87269189Y-75939999D02*
X87307284Y-75825713D01*
X87307284Y-75825713D02*
X87383474Y-75749523D01*
X87383474Y-75749523D02*
X87459665Y-75711428D01*
X87459665Y-75711428D02*
X87612046Y-75673332D01*
X87612046Y-75673332D02*
X87726332Y-75673332D01*
X87726332Y-75673332D02*
X87878713Y-75711428D01*
X87878713Y-75711428D02*
X87954903Y-75749523D01*
X87954903Y-75749523D02*
X88031094Y-75825713D01*
X88031094Y-75825713D02*
X88069189Y-75939999D01*
X88069189Y-75939999D02*
X88069189Y-76130475D01*
X87269189Y-75406666D02*
X87269189Y-74911428D01*
X87269189Y-74911428D02*
X87573951Y-75178094D01*
X87573951Y-75178094D02*
X87573951Y-75063809D01*
X87573951Y-75063809D02*
X87612046Y-74987618D01*
X87612046Y-74987618D02*
X87650141Y-74949523D01*
X87650141Y-74949523D02*
X87726332Y-74911428D01*
X87726332Y-74911428D02*
X87916808Y-74911428D01*
X87916808Y-74911428D02*
X87992998Y-74949523D01*
X87992998Y-74949523D02*
X88031094Y-74987618D01*
X88031094Y-74987618D02*
X88069189Y-75063809D01*
X88069189Y-75063809D02*
X88069189Y-75292380D01*
X88069189Y-75292380D02*
X88031094Y-75368571D01*
X88031094Y-75368571D02*
X87992998Y-75406666D01*
D12*
%TO.C,D4*%
X97314000Y-78080000D02*
X100446000Y-78080000D01*
X97314000Y-78080000D02*
G75*
G02*
X100446000Y-78080000I1566000J2506124D01*
G01*
D13*
X98980000Y-78780000D02*
G75*
G02*
X98780000Y-78780000I-100000J0D01*
G01*
X98780000Y-78780000D02*
G75*
G02*
X98980000Y-78780000I100000J0D01*
G01*
D14*
%TO.C,SW2*%
X94971666Y-97385000D02*
X108941666Y-97385000D01*
X94971666Y-111355000D02*
X94971666Y-97385000D01*
X108941666Y-97385000D02*
X108941666Y-111355000D01*
X108941666Y-111355000D02*
X94971666Y-111355000D01*
%TO.C,SW3*%
X115278332Y-97385000D02*
X129248332Y-97385000D01*
X115278332Y-111355000D02*
X115278332Y-97385000D01*
X129248332Y-97385000D02*
X129248332Y-111355000D01*
X129248332Y-111355000D02*
X115278332Y-111355000D01*
%TO.C,SW4*%
X135585000Y-97385000D02*
X149555000Y-97385000D01*
X135585000Y-111355000D02*
X135585000Y-97385000D01*
X149555000Y-97385000D02*
X149555000Y-111355000D01*
X149555000Y-111355000D02*
X135585000Y-111355000D01*
%TO.C,R1*%
X97960000Y-66610000D02*
X97960000Y-70450000D01*
X99800000Y-66610000D02*
X99800000Y-70450000D01*
%TO.C,R2*%
X75620000Y-70450000D02*
X75620000Y-66610000D01*
X77460000Y-70450000D02*
X77460000Y-66610000D01*
D12*
%TO.C,D1*%
X74918682Y-78080000D02*
X78050682Y-78080000D01*
X74918682Y-78080000D02*
G75*
G02*
X78050682Y-78080000I1566000J2506124D01*
G01*
D13*
X76584682Y-78780000D02*
G75*
G02*
X76384682Y-78780000I-100000J0D01*
G01*
X76384682Y-78780000D02*
G75*
G02*
X76584682Y-78780000I100000J0D01*
G01*
D14*
%TO.C,R4*%
X90513332Y-70450000D02*
X90513332Y-66610000D01*
X92353332Y-70450000D02*
X92353332Y-66610000D01*
%TO.C,SW1*%
X74665000Y-97385000D02*
X88635000Y-97385000D01*
X74665000Y-111355000D02*
X74665000Y-97385000D01*
X88635000Y-97385000D02*
X88635000Y-111355000D01*
X88635000Y-111355000D02*
X74665000Y-111355000D01*
D12*
%TO.C,D2*%
X82383788Y-78080000D02*
X85515788Y-78080000D01*
X82383788Y-78080000D02*
G75*
G02*
X85515788Y-78080000I1566000J2506124D01*
G01*
D13*
X84049788Y-78780000D02*
G75*
G02*
X83849788Y-78780000I-100000J0D01*
G01*
X83849788Y-78780000D02*
G75*
G02*
X84049788Y-78780000I100000J0D01*
G01*
D12*
%TO.C,U1*%
X104130000Y-83139000D02*
X104130000Y-65994000D01*
X106035000Y-85044000D02*
X120005000Y-85044000D01*
X108525000Y-64089000D02*
X108528728Y-63178728D01*
X109028728Y-62679000D02*
X117024000Y-62679000D01*
X117524000Y-63179000D02*
X117524000Y-64089000D01*
D15*
X120005000Y-64089000D02*
X106035000Y-64089000D01*
D12*
X120005000Y-64089000D02*
X106035000Y-64089000D01*
X121910000Y-83139000D02*
X121910000Y-65994000D01*
X104130000Y-65994000D02*
G75*
G02*
X106035000Y-64089000I1905001J-1D01*
G01*
X106035000Y-85044000D02*
G75*
G02*
X104130000Y-83139000I1J1905001D01*
G01*
X108528728Y-63178728D02*
G75*
G02*
X109028728Y-62679001I500018J-291D01*
G01*
X117024000Y-62679000D02*
G75*
G02*
X117524000Y-63179000I0J-500000D01*
G01*
X120005000Y-64089000D02*
G75*
G02*
X121910000Y-65994000I0J-1905000D01*
G01*
X121910000Y-83139000D02*
G75*
G02*
X120005000Y-85044000I-1905000J0D01*
G01*
D16*
X104322000Y-64330000D02*
G75*
G02*
X103818000Y-64330000I-252000J0D01*
G01*
X103818000Y-64330000D02*
G75*
G02*
X104322000Y-64330000I252000J0D01*
G01*
X105465000Y-65210000D02*
G75*
G02*
X104961000Y-65210000I-252000J0D01*
G01*
X104961000Y-65210000D02*
G75*
G02*
X105465000Y-65210000I252000J0D01*
G01*
D14*
%TO.C,R3*%
X83066666Y-70450000D02*
X83066666Y-66610000D01*
X84906666Y-70450000D02*
X84906666Y-66610000D01*
D12*
%TO.C,D3*%
X89848894Y-78080000D02*
X92980894Y-78080000D01*
X89848894Y-78080000D02*
G75*
G02*
X92980894Y-78080000I1566000J2506124D01*
G01*
D13*
X91514894Y-78780000D02*
G75*
G02*
X91314894Y-78780000I-100000J0D01*
G01*
X91314894Y-78780000D02*
G75*
G02*
X91514894Y-78780000I100000J0D01*
G01*
%TD*%
%LPC*%
D17*
%TO.C,D4*%
X98880000Y-74310000D03*
D18*
X98880000Y-76850000D03*
%TD*%
D19*
%TO.C,SW2*%
X96876666Y-104370000D03*
D20*
X101956666Y-104370000D03*
D19*
X107036666Y-104370000D03*
D21*
X104496666Y-99290000D03*
X98146666Y-101830000D03*
%TD*%
D19*
%TO.C,SW3*%
X117183332Y-104370000D03*
D20*
X122263332Y-104370000D03*
D19*
X127343332Y-104370000D03*
D21*
X124803332Y-99290000D03*
X118453332Y-101830000D03*
%TD*%
D19*
%TO.C,SW4*%
X137490000Y-104370000D03*
D20*
X142570000Y-104370000D03*
D19*
X147650000Y-104370000D03*
D21*
X145110000Y-99290000D03*
X138760000Y-101830000D03*
%TD*%
D22*
%TO.C,R1*%
X98880000Y-65990000D03*
D23*
X98880000Y-71070000D03*
%TD*%
D22*
%TO.C,R2*%
X76540000Y-71070000D03*
D23*
X76540000Y-65990000D03*
%TD*%
D17*
%TO.C,D1*%
X76484682Y-74310000D03*
D18*
X76484682Y-76850000D03*
%TD*%
D22*
%TO.C,R4*%
X91433332Y-71070000D03*
D23*
X91433332Y-65990000D03*
%TD*%
D19*
%TO.C,SW1*%
X76570000Y-104370000D03*
D20*
X81650000Y-104370000D03*
D19*
X86730000Y-104370000D03*
D21*
X84190000Y-99290000D03*
X77840000Y-101830000D03*
%TD*%
D17*
%TO.C,D2*%
X83949788Y-74310000D03*
D18*
X83949788Y-76850000D03*
%TD*%
D24*
%TO.C,U1*%
X104565000Y-67010000D03*
D25*
X105400000Y-67010000D03*
D24*
X104565000Y-69550000D03*
D25*
X105400000Y-69550000D03*
D24*
X104565000Y-72090000D03*
D25*
X105400000Y-72090000D03*
D24*
X104565000Y-74630000D03*
D25*
X105400000Y-74630000D03*
D24*
X104565000Y-77170000D03*
D25*
X105400000Y-77170000D03*
D24*
X104565000Y-79710000D03*
D25*
X105400000Y-79710000D03*
D24*
X104565000Y-82250000D03*
D25*
X105400000Y-82250000D03*
X120640000Y-82250000D03*
D26*
X121475000Y-82250000D03*
D25*
X120640000Y-79710000D03*
D26*
X121475000Y-79710000D03*
D25*
X120640000Y-77170000D03*
D26*
X121475000Y-77170000D03*
D25*
X120640000Y-74630000D03*
D26*
X121475000Y-74630000D03*
D25*
X120640000Y-72090000D03*
D26*
X121475000Y-72090000D03*
D25*
X120640000Y-69550000D03*
D26*
X121475000Y-69550000D03*
D25*
X120640000Y-67010000D03*
D26*
X121475000Y-67010000D03*
%TD*%
D22*
%TO.C,R3*%
X83986666Y-71070000D03*
D23*
X83986666Y-65990000D03*
%TD*%
D17*
%TO.C,D3*%
X91414894Y-74310000D03*
D18*
X91414894Y-76850000D03*
%TD*%
%LPD*%
M02*
